<svg id="Layer_1" data-name="Layer 1" xmlns="http://www.w3.org/2000/svg" viewBox="0 0 119 50"><defs><style>.cls-1,.cls-5{fill:#8bc53f;}.cls-2{fill:#f6921e;}.cls-3{fill:#fff;}.cls-4{fill:none;stroke:#082d49;stroke-linecap:round;stroke-miterlimit:10;}.cls-5{font-size:14.3px;font-family:BillionthinePersonalUseOnly, Billionthine Personal Use Only;}.cls-6{fill:#000;}</style></defs><path class="cls-1" d="M16.67,27.48h-.06a4.72,4.72,0,0,1-4.21-3.13.53.53,0,0,1,1-.41,3.64,3.64,0,0,0,3.27,2.47,3,3,0,0,0,2.25-1.17l.24-5.63-10,1.11L10.87,35h7.61l.35-8.24A3.79,3.79,0,0,1,16.67,27.48Z"/><path class="cls-1" d="M40.51,17.52l.25,6.4a3,3,0,0,0,1.65.88c1.36.22,2.72-.63,3.75-2.34a.53.53,0,1,1,.91.55C46,24.88,44.44,25.9,42.85,25.9a3.2,3.2,0,0,1-.61,0,3.88,3.88,0,0,1-1.43-.54L41.17,35h9.08L51.4,19.46Z"/><path class="cls-2" d="M39.19,15.56H20.32L19.52,35H40Zm-6.56,5a.83.83,0,1,1-.82.82A.83.83,0,0,1,32.63,20.55Zm-5.85,0a.83.83,0,0,1,0,1.65.83.83,0,0,1,0-1.65Zm9,3c-1.51,2.85-3.68,4.44-6,4.44a5.12,5.12,0,0,1-.56,0,6.67,6.67,0,0,1-5.44-5.13.54.54,0,0,1,1-.29,5.59,5.59,0,0,0,4.52,4.36c2.11.23,4.12-1.17,5.54-3.85a.53.53,0,0,1,.72-.22A.54.54,0,0,1,35.78,23.53Z"/><path class="cls-3" d="M27.37,18.2a.84.84,0,1,1-.84-.84A.84.84,0,0,1,27.37,18.2Z"/><path class="cls-3" d="M33.76,18.2a.84.84,0,0,1-1.68,0,.84.84,0,0,1,1.68,0Z"/><path class="cls-4" d="M26.5,18.25V13.7a2.86,2.86,0,0,1,2.94-2.87h.8A2.63,2.63,0,0,1,32.9,13.7v4.55"/><text class="cls-5" transform="translate(53.7 31.31)">Lobby<tspan class="cls-6" x="32.46" y="0"> </tspan><tspan class="cls-2" x="36" y="0">Sale</tspan></text></svg>