<svg id="Layer_1" data-name="Layer 1" xmlns="http://www.w3.org/2000/svg" viewBox="0 0 119 50"><defs><style>.cls-1,.cls-5{fill:#8bc53f;}.cls-2{fill:#f6921e;}.cls-3{fill:#fff;}.cls-4{fill:none;stroke:#082d49;stroke-linecap:round;stroke-miterlimit:10;}.cls-5{font-size:12.17px;font-family:BillionthinePersonalUseOnly, Billionthine Personal Use Only;}.cls-6{fill:#000;}</style></defs><path class="cls-1" d="M46.17,19.67H46.1a4.62,4.62,0,0,1-4.09-3,.52.52,0,0,1,1-.4,3.56,3.56,0,0,0,3.18,2.4,2.88,2.88,0,0,0,2.18-1.14L48.57,12,38.8,13.09,40.53,27h7.4l.34-8A3.73,3.73,0,0,1,46.17,19.67Z"/><path class="cls-1" d="M69.36,10l.24,6.22a2.9,2.9,0,0,0,1.61.86c1.32.22,2.65-.61,3.64-2.27a.52.52,0,0,1,.89.53c-1.09,1.81-2.56,2.81-4.11,2.81a4,4,0,0,1-.59,0,4.13,4.13,0,0,1-1.39-.53L70,27h8.83L80,11.87Z"/><path class="cls-2" d="M68.07,8.08H49.72L48.94,27H68.85ZM61.7,12.93a.8.8,0,1,1-.8.8A.8.8,0,0,1,61.7,12.93Zm-5.7,0a.8.8,0,1,1-.8.8A.8.8,0,0,1,56,12.93Zm8.75,2.89c-1.46,2.78-3.58,4.33-5.86,4.33l-.55,0a6.46,6.46,0,0,1-5.28-5,.51.51,0,1,1,1-.28,5.47,5.47,0,0,0,4.4,4.25c2,.22,4-1.15,5.39-3.75a.53.53,0,0,1,.7-.22A.52.52,0,0,1,64.75,15.82Z"/><path class="cls-3" d="M56.58,10.64a.82.82,0,1,1-.82-.82A.82.82,0,0,1,56.58,10.64Z"/><path class="cls-3" d="M62.79,10.64A.82.82,0,1,1,62,9.82.82.82,0,0,1,62.79,10.64Z"/><path class="cls-4" d="M55.73,10.69V6.26a2.77,2.77,0,0,1,2.86-2.78h.78A2.55,2.55,0,0,1,62,6.26v4.43"/><text class="cls-5" transform="translate(37.34 41.28)">Lobby<tspan class="cls-6" x="27.62" y="0"> </tspan><tspan class="cls-2" x="30.64" y="0">Sale</tspan></text></svg>